<svg width="354" height="71" viewBox="0 0 354 71" fill="none" xmlns="http://www.w3.org/2000/svg">
<path d="M21.8 33.1L2.7 10.8H4.5L25.5 35.3L5.8 61.2001H0L21.8 33.1ZM28.3 10.8H33.2V61.2001H28.3V10.8Z" fill="white"/>
<path d="M58.6001 61.2H53.3001L37.2001 33.2C38.0001 33.3 38.7001 33.3 39.5001 33.3C46.7001 33.3 50.3001 29.9 50.3001 23.2C50.3001 15.8 45.8001 12.1 36.8001 12.2H33.5001V61.2H28.6001V10.8C29.4001 10.7 32.3001 10.7 37.4001 10.7C49.2001 10.6 55.2001 14.7 55.2001 22.9C55.2001 26.1 54.1001 28.8 52.0001 30.9C49.9001 33 47.0001 34.2 43.4001 34.7L58.6001 61.2Z" fill="white"/>
<path d="M74.6001 0H73.6001V70.7H74.6001V0Z" fill="white"/>
<path d="M199.8 32.7001H202L193.5 10.8L185 32.7001H185.8L192.8 14.5" fill="white"/>
<path d="M265.9 32.7001H268.1L259.6 10.8L251.1 32.7001H251.8L258.9 14.5" fill="white"/>
<path d="M94.5001 20.7001L102.6 11.2001H101.8L92.9001 21.6001L101.3 32.7001H103.8L94.5001 20.7001Z" fill="white"/>
<path d="M91.7001 11.2001H89.6001V32.7001H91.7001V11.2001Z" fill="white"/>
<path d="M127.7 32.7001H129.8L121.3 10.8L112.8 32.7001H113.6L120.6 14.5" fill="white"/>
<path d="M152.2 11.2001H138.8V11.8001H144.5V32.7001H146.6V11.8001H152.2V11.2001Z" fill="white"/>
<path d="M175.5 11.2001L170 21.8001L163.8 11.2001H161.5L168.3 22.9001V32.7001H170.4V22.3001L176.2 11.2001H175.5Z" fill="white"/>
<path d="M234.8 21.4C236.3 21.2 237.6 20.7 238.5 19.8C239.4 18.9 239.8 17.8 239.8 16.4C239.8 12.9 237.3 11.1 232.2 11.2C230 11.2 228.8 11.2 228.4 11.2V32.7H230.5V11.8H231.9C235.7 11.7 237.7 13.3 237.7 16.5C237.7 19.4 236.2 20.8 233.1 20.8C232.8 20.8 232.5 20.8 232.1 20.8L239 32.7H241.3L234.8 21.4Z" fill="white"/>
<path d="M295.4 11.2001L288.5 29.1001L281.6 11.2001H279.1L287.7 33.0001L296.1 11.2001H295.4Z" fill="white"/>
<path d="M309.2 11.2001H307.1V32.7001H309.2V11.2001Z" fill="white"/>
<path d="M335.7 11.2001H322.3V11.8001H328V32.7001H330.1V11.8001H335.7V11.2001Z" fill="white"/>
<path d="M352.9 23.7C352.1 22.4 350.6 21.1 348.4 19.8C345.8 18.2 344.5 16.6 344.6 14.8C344.7 13.9 345.1 13.1 345.8 12.6C346.5 12 347.4 11.7 348.4 11.7C349.3 11.7 350.2 12 351 12.5C351.6 12.9 352.1 13.3 352.4 13.8L353.2 13C352.6 12.1 351.6 11.5 350.2 11.2C349.6 11.1 349 11 348.4 10.9C346.9 10.9 345.7 11.3 344.6 12.1C343.5 12.9 343 14 342.9 15.3C342.8 17.9 344.3 20.1 347.6 22C350.5 23.6 352 25.6 352 27.8C352 29.1 351.6 30.2 350.8 30.9C350 31.7 349 32 347.7 32C346 32 344.4 31.3 343.1 30L342.4 31C343.9 32.2 345.7 32.8 347.7 32.8C349.3 32.8 350.6 32.3 351.8 31.4C353.1 30.4 353.7 29 353.7 27.3C353.9 26 353.5 24.8 352.9 23.7Z" fill="white"/>
<path d="M89.6001 60.1H90.7001V53.9H89.6001V53H92.9001V53.9H91.8001V60.1H92.9001V61H89.6001V60.1Z" fill="white"/>
<path d="M97.1001 52.8999H98.4001L101.5 59.6999L101.4 57.5999V52.8999H102.4V60.9999H101.1L98.0001 54.1999L98.1001 56.2999V60.9999H97.1001V52.8999Z" fill="white"/>
<path d="M107.8 53.9H105.6V53H111V53.9H108.8V61H107.8V53.9Z" fill="white"/>
<path d="M114.6 52.8999H119.6V53.7999H115.6V56.1999H118.9V57.0999H115.6V59.9999H119.6V60.9999H114.6V52.8999Z" fill="white"/>
<path d="M123 52.8999H125.7C127 52.8999 128.1 53.4999 128.1 55.0999C128.1 56.0999 127.4 57.0999 126.5 57.3999L128.5 60.6999L127.6 61.1999L125.5 57.5999H124V60.9999H123V52.8999ZM125.4 56.5999C126.4 56.5999 127.1 55.9999 127.1 55.0999C127.1 54.3999 126.7 53.7999 125.7 53.7999H124V56.5999H125.4Z" fill="white"/>
<path d="M132.1 60.1H133.2V53.9H132.1V53H135.4V53.9H134.3V60.1H135.4V61H132.1V60.1Z" fill="white"/>
<path d="M145.2 56.9999C145.2 57.5999 145.2 61.1999 142.3 61.1999C141 61.1999 139.4 60.2999 139.4 56.9999C139.4 53.7999 140.9 52.7999 142.3 52.7999C143.6 52.7999 145.2 53.6999 145.2 56.9999ZM140.5 56.9999C140.5 58.1999 140.7 60.1999 142.3 60.1999C143.9 60.1999 144.1 58.1999 144.1 56.9999C144.1 55.7999 143.9 53.7999 142.3 53.7999C140.7 53.7999 140.5 55.7999 140.5 56.9999Z" fill="white"/>
<path d="M148.5 52.8999H151.2C152.5 52.8999 153.6 53.4999 153.6 55.0999C153.6 56.0999 152.9 57.0999 152 57.3999L154 60.6999L153.1 61.1999L151 57.5999H149.5V60.9999H148.5V52.8999ZM150.9 56.5999C151.9 56.5999 152.6 55.9999 152.6 55.0999C152.6 54.3999 152.2 53.7999 151.2 53.7999H149.5V56.5999H150.9Z" fill="white"/>
<path d="M165 52.8999H167.7C170 52.8999 171 53.7999 171 56.7999C171 59.2999 170.6 60.8999 167.7 60.8999H165V59.9999H165.8V53.7999H165V52.8999ZM166.9 60.0999H168C169.4 60.0999 170 59.2999 170 56.9999C170 54.4999 169.3 53.8999 168 53.8999H166.9V60.0999Z" fill="white"/>
<path d="M174.1 52.8999H179.1V53.7999H175.1V56.1999H178.4V57.0999H175.1V59.9999H179.1V60.9999H174.1V52.8999Z" fill="white"/>
<path d="M183.1 58.4C183.3 59.4 183.8 60.0999 184.9 60.0999C185.7 60.0999 186.4 59.6 186.4 58.7C186.4 57.7 185.6 57.4999 184.8 57.0999C183.6 56.5999 182.5 56.2999 182.5 54.7999C182.5 53.3999 183.6 52.7 184.9 52.7C186.2 52.7 187 53.5 187.4 54.7L186.4 55C186.2 54.2 185.8 53.7 184.9 53.7C184.2 53.7 183.6 53.9999 183.6 54.7999C183.6 55.5999 184.1 55.7999 184.7 56.0999L186.4 56.9C187.1 57.3 187.5 57.9999 187.5 58.7999C187.5 60.2999 186.4 61.2 185 61.2C183.5 61.2 182.6 60.1999 182.3 58.7999L183.1 58.4Z" fill="white"/>
<path d="M191.7 60.1H192.8V53.9H191.7V53H195V53.9H193.9V60.1H195V61H191.7V60.1Z" fill="white"/>
<path d="M204.6 60.2C203.9 60.7 202.9 61.0999 202.1 61.0999C199.7 61.0999 199.1 58.9 199.1 56.9C199.1 55 199.8 52.7 202.1 52.7C203.2 52.7 204.1 53.3 204.7 54.2L203.8 54.7999C203.4 54.1999 202.8 53.7 202 53.7C200.4 53.7 200.1 55.7 200.1 56.9C200.1 58.2 200.4 60.0999 202 60.0999C202.5 60.0999 203.1 60 203.5 59.7V57.5999H201.6V56.7H204.6V60.2Z" fill="white"/>
<path d="M207.7 52.8999H209L212.1 59.6999L212 57.5999V52.8999H213V60.9999H211.7L208.6 54.1999L208.7 56.2999V60.9999H207.7V52.8999Z" fill="white"/>
</svg>
