<svg width="40" height="41" viewBox="0 0 40 41" fill="none" xmlns="http://www.w3.org/2000/svg">
<g clip-path="url(#clip0)">
<path d="M39.1666 7.85001H0.833359C0.373359 7.85001 0 8.22337 0 8.68337C0 9.14337 0.373359 9.51672 0.833359 9.51672H39.1667C39.6267 9.51672 40.0001 9.14337 40.0001 8.68337C40.0001 8.22337 39.6266 7.85001 39.1666 7.85001Z" fill="white"/>
<path d="M39.1666 19.5166H0.833359C0.373359 19.5166 0 19.89 0 20.35C0 20.81 0.373359 21.1834 0.833359 21.1834H39.1667C39.6267 21.1834 40.0001 20.81 40.0001 20.35C40.0001 19.89 39.6266 19.5166 39.1666 19.5166Z" fill="white"/>
<path d="M39.1666 31.1834H0.833359C0.373359 31.1834 0 31.5566 0 32.0166C0 32.4766 0.373359 32.85 0.833359 32.85H39.1667C39.6267 32.85 40.0001 32.4766 40.0001 32.0166C40 31.5566 39.6266 31.1834 39.1666 31.1834Z" fill="white"/>
</g>
<defs>
<clipPath id="clip0">
<rect width="40" height="40" fill="white" transform="translate(0 0.350006)"/>
</clipPath>
</defs>
</svg>
